<?xml version="1.0" encoding="utf-8"?>
<!-- Generator: Adobe Illustrator 27.0.1, SVG Export Plug-In . SVG Version: 6.00 Build 0)  -->
<svg version="1.1" id="Layer_1" xmlns="http://www.w3.org/2000/svg" xmlns:xlink="http://www.w3.org/1999/xlink" x="0px" y="0px"
	 viewBox="0 0 80 80" style="enable-background:new 0 0 80 80;" xml:space="preserve">
<style type="text/css">
	.st0{fill:#74B2FF;}
</style>
<g>
	<path class="st0" d="M41.1,24.7c0.2,0.5,0.4,0.9,0.4,1.2c0,0.4,0.1,0.9,0.1,1.6v25.2c0,2.1-0.6,3.3-1.7,3.7
		c-0.6,0.2-1.3,0.3-2.2,0.3c-0.9,0-1.6-0.1-2.1-0.2c-0.5-0.2-0.9-0.3-1.2-0.5c-0.3-0.2-0.5-0.5-0.6-0.9c-0.2-0.5-0.2-1.3-0.2-2.4
		V37.4c-0.8,0.9-1.9,2.4-3.3,4.5s-2.4,3.3-2.8,3.8c-0.4,0.5-0.7,0.9-0.8,1.1c-0.2,0.2-0.5,0.5-1.1,0.8c-0.6,0.3-1.2,0.5-1.9,0.5
		s-1.3-0.2-1.9-0.5c-0.6-0.3-1-0.6-1.2-0.9l-0.4-0.5c-0.6-0.8-1.8-2.4-3.6-4.8s-2.8-3.8-2.9-4v15.3c0,0.7,0,1.2-0.1,1.6
		s-0.2,0.7-0.4,1.2c-0.5,0.8-1.6,1.2-3.5,1.2c-1.8,0-3-0.4-3.4-1.2C6,55,5.9,54.6,5.8,54.2c0-0.4-0.1-0.9-0.1-1.6V27.4
		c0-0.7,0-1.2,0.1-1.6c0-0.3,0.2-0.7,0.4-1.2c0.5-0.8,1.6-1.2,3.5-1.2c0.8,0,1.5,0.1,2.1,0.3s1,0.4,1.2,0.6l0.3,0.3l10.3,13.5
		c5.1-6.8,8.6-11.3,10.3-13.5c0.5-0.8,1.7-1.2,3.7-1.2C39.5,23.5,40.7,23.9,41.1,24.7z"/>
	<path class="st0" d="M49.3,23.4l8.4,0c4.4,0,8.2,1.6,11.6,4.7c3.3,3.2,5,7,5,11.7c0,4.6-1.6,8.6-4.9,11.9
		c-3.3,3.3-7.2,4.9-11.8,4.9h-8.3c-1.8,0-3-0.4-3.4-1.1c-0.4-0.6-0.5-1.6-0.5-2.9V27.4c0-0.7,0-1.3,0.1-1.6c0-0.3,0.2-0.7,0.4-1.2
		C46.2,23.8,47.3,23.4,49.3,23.4z M63.6,46.2c1.8-1.6,2.6-3.7,2.6-6.1s-0.9-4.5-2.6-6.1c-1.7-1.6-3.7-2.5-6-2.5h-4.4v17.2h4.4
		C59.9,48.6,61.8,47.8,63.6,46.2z"/>
</g>
</svg>
